<svg xmlns="http://www.w3.org/2000/svg" xmlns:xlink="http://www.w3.org/1999/xlink" id="Desktop" viewBox="0 0 1900 1080">
  <defs>
    <style>
      .cls-1 {
        fill: none;
      }

      .cls-2 {
        clip-path: url(#clip-path);
      }

      .cls-3 {
        fill: #b7317c;
      }

      .cls-4 {
        fill: #5e6d9f;
      }

      .cls-5 {
        fill: #2f4983;
      }

      .cls-6 {
        clip-path: url(#clip-path-2);
      }

      .cls-7 {
        fill: #858fb8;
      }

      .cls-8 {
        fill: #d596b9;
      }

      .cls-9 {
        fill: #e2bedb;
      }

      .cls-10 {
        fill: #6976a7;
      }

      .cls-11 {
        fill: #4e6196;
      }

      .cls-12 {
        fill: #ffed00;
      }

      .cls-13 {
        fill: #6775a5;
      }

      .cls-14 {
        fill: #d49bc5;
      }

      .cls-15 {
        fill: #c3c8e6;
      }

      .cls-16 {
        fill: #fff;
      }
    </style>
    <clipPath id="clip-path" transform="translate(52.4, 0)">
      <rect class="cls-1" width="1900" height="1080"/>
    </clipPath>
    <clipPath id="clip-path-2" transform="translate(52.4, 0)">
      <rect class="cls-1" x="0" y="0" width="1900" height="1080"/>
    </clipPath>
  </defs>
  <g class="cls-2">
    <rect class="cls-3" x="52.4" width="1900" height="1080"/>
    <rect class="cls-4" x="561.2" y="298.8" width="36.1" height="565.08"/>
    <rect class="cls-4" x="609.5" y="298.8" width="36.1" height="565.08"/>
    <rect class="cls-4" x="657.9" y="298.8" width="36.1" height="565.08"/>
    <rect class="cls-5" x="563" y="460.2" width="32.5" height="9.55"/>
    <rect class="cls-5" x="611.3" y="460.2" width="32.5" height="9.55"/>
    <rect class="cls-5" x="659.7" y="460.2" width="32.5" height="9.55"/>
    <g class="cls-6">
      <rect class="cls-7" x="1668" y="552.8" width="348.8" height="363.64" rx="8.3"/>
    </g>
    <rect class="cls-5" x="1668" y="576.6" width="348.8" height="1.74"/>
    <rect class="cls-5" x="1668" y="586.7" width="348.8" height="1.74"/>
    <rect class="cls-5" x="1668" y="596.9" width="348.8" height="1.74"/>
    <rect class="cls-5" x="1668" y="607.1" width="348.8" height="1.74"/>
    <rect class="cls-5" x="1668" y="617.3" width="348.8" height="1.74"/>
    <rect class="cls-5" x="1668" y="627.5" width="348.8" height="1.74"/>
    <rect class="cls-5" x="1668" y="637.7" width="348.8" height="1.74"/>
    <rect class="cls-5" x="1668" y="647.9" width="348.8" height="1.74"/>
    <rect class="cls-5" x="1668" y="658.1" width="348.8" height="1.74"/>
    <rect class="cls-5" x="1668" y="668.3" width="348.8" height="1.74"/>
    <rect class="cls-5" x="1668" y="678.4" width="348.8" height="1.74"/>
    <rect class="cls-5" x="1668" y="688.6" width="348.8" height="1.74"/>
    <rect class="cls-5" x="1668" y="698.8" width="348.8" height="1.74"/>
    <rect class="cls-5" x="1668" y="709" width="348.8" height="1.74"/>
    <g class="cls-6">
      <path class="cls-7" d="M1937.6,527.5a2.3,2.3,0,0,0-2.3-2.3H1628a2.3,2.3,0,0,0,0,4.6h307.3a2.3,2.3,0,0,0,2.3-2.3" transform="translate(58.4 7.7)"/>
      <path class="cls-7" d="M1641.6,526.3a2.3,2.3,0,0,0-2.3,2.3v21.3a2.4,2.4,0,0,0,4.7,0V528.6a2.3,2.3,0,0,0-2.4-2.3" transform="translate(58.4 7.7)"/>
      <path class="cls-7" d="M1713.8,526.3a2.3,2.3,0,0,0-2.3,2.3v21.3a2.4,2.4,0,0,0,4.7,0V528.6a2.3,2.3,0,0,0-2.4-2.3" transform="translate(58.4 7.7)"/>
      <path class="cls-7" d="M1786,526.3a2.3,2.3,0,0,0-2.3,2.3v21.3a2.3,2.3,0,0,0,4.6,0V528.6a2.3,2.3,0,0,0-2.3-2.3" transform="translate(58.4 7.7)"/>
      <path class="cls-7" d="M1858.2,526.3a2.3,2.3,0,0,0-2.3,2.3v21.3a2.3,2.3,0,1,0,4.6,0V528.6a2.3,2.3,0,0,0-2.3-2.3" transform="translate(58.4 7.7)"/>
      <path class="cls-5" d="M430.6,495.2v-147a35.5,35.5,0,0,0-70.9,0v147Z" transform="translate(58.4 7.7)"/>
    </g>
    <rect class="cls-5" x="449.9" y="292.9" width="7.2" height="38.6"/>
    <rect class="cls-5" x="451.7" y="260.8" width="3.6" height="38.6"/>
    <g class="cls-6">
      <rect class="cls-7" x="109.9" y="284.6" width="109" height="391.57" rx="8.3"/>
    </g>
    <rect class="cls-5" x="109.9" y="310.2" width="109" height="1.87"/>
    <rect class="cls-5" x="109.9" y="321.2" width="109" height="1.87"/>
    <rect class="cls-5" x="109.9" y="332.1" width="109" height="1.87"/>
    <rect class="cls-5" x="109.9" y="343.1" width="109" height="1.87"/>
    <rect class="cls-5" x="109.9" y="354.1" width="109" height="1.87"/>
    <rect class="cls-5" x="109.9" y="365" width="109" height="1.87"/>
    <rect class="cls-5" x="109.9" y="376" width="109" height="1.87"/>
    <rect class="cls-5" x="109.9" y="387" width="109" height="1.87"/>
    <rect class="cls-5" x="109.9" y="398" width="109" height="1.87"/>
    <rect class="cls-5" x="109.9" y="408.9" width="109" height="1.87"/>
    <rect class="cls-5" x="109.9" y="419.9" width="109" height="1.87"/>
    <rect class="cls-5" x="109.9" y="430.9" width="109" height="1.87"/>
    <rect class="cls-5" x="109.9" y="441.8" width="109" height="1.87"/>
    <rect class="cls-5" x="109.9" y="452.8" width="109" height="1.87"/>
    <g class="cls-6">
      <path class="cls-7" d="M106,242.4a4.6,4.6,0,0,0-4.6,4.6v40.6a4.7,4.7,0,0,0,9.3,0V247a4.6,4.6,0,0,0-4.7-4.6" transform="translate(58.4 7.7)"/>
      <path class="cls-7" d="M106,200.8a2.4,2.4,0,0,0-2.3,2.3v45.3a2.4,2.4,0,0,0,4.7,0V203.1a2.4,2.4,0,0,0-2.4-2.3" transform="translate(58.4 7.7)"/>
      <rect class="cls-7" x="1087.9" y="570.8" width="258.6" height="363.64" rx="8.3"/>
    </g>
    <rect class="cls-8" x="1087.9" y="594.6" width="258.6" height="1.74"/>
    <rect class="cls-8" x="1087.9" y="604.8" width="258.6" height="1.74"/>
    <rect class="cls-8" x="1087.9" y="615" width="258.6" height="1.74"/>
    <rect class="cls-8" x="1087.9" y="625.2" width="258.6" height="1.74"/>
    <rect class="cls-8" x="1087.9" y="635.4" width="258.6" height="1.74"/>
    <rect class="cls-8" x="1087.9" y="645.5" width="258.6" height="1.74"/>
    <rect class="cls-8" x="1087.9" y="655.7" width="258.6" height="1.74"/>
    <rect class="cls-8" x="1087.9" y="665.9" width="258.6" height="1.74"/>
    <rect class="cls-8" x="1087.9" y="676.1" width="258.6" height="1.74"/>
    <rect class="cls-8" x="1087.9" y="686.3" width="258.6" height="1.74"/>
    <rect class="cls-8" x="1087.9" y="696.5" width="258.6" height="1.74"/>
    <rect class="cls-8" x="1087.9" y="706.7" width="258.6" height="1.74"/>
    <rect class="cls-8" x="1087.9" y="716.9" width="258.6" height="1.74"/>
    <rect class="cls-8" x="1087.9" y="727.1" width="258.6" height="1.74"/>
    <g class="cls-6">
      <rect class="cls-7" x="311.7" y="423.4" width="212.7" height="707.35" rx="8.3"/>
    </g>
    <rect class="cls-9" x="311.7" y="456.6" width="212.7" height="2.43"/>
    <rect class="cls-9" x="311.7" y="470.9" width="212.7" height="2.43"/>
    <rect class="cls-9" x="311.7" y="485.1" width="212.7" height="2.43"/>
    <rect class="cls-9" x="311.7" y="499.3" width="212.7" height="2.43"/>
    <rect class="cls-9" x="311.7" y="513.5" width="212.7" height="2.43"/>
    <rect class="cls-9" x="311.7" y="527.8" width="212.7" height="2.43"/>
    <rect class="cls-9" x="311.7" y="542" width="212.7" height="2.43"/>
    <rect class="cls-9" x="311.7" y="556.2" width="212.7" height="2.43"/>
    <rect class="cls-9" x="311.7" y="570.4" width="212.7" height="2.43"/>
    <rect class="cls-9" x="311.7" y="584.7" width="212.7" height="2.43"/>
    <rect class="cls-9" x="311.7" y="598.9" width="212.7" height="2.43"/>
    <rect class="cls-9" x="311.7" y="613.1" width="212.7" height="2.43"/>
    <rect class="cls-9" x="311.7" y="627.3" width="212.7" height="2.43"/>
    <rect class="cls-9" x="311.7" y="641.6" width="212.7" height="2.43"/>
    <g class="cls-6">
      <rect class="cls-10" x="35.1" y="566.9" width="258.6" height="363.64" rx="10.7"/>
    </g>
    <rect class="cls-8" x="35.1" y="590.7" width="258.6" height="1.74"/>
    <rect class="cls-8" x="35.1" y="600.9" width="258.6" height="1.74"/>
    <rect class="cls-8" x="35.1" y="611.1" width="258.6" height="1.74"/>
    <rect class="cls-8" x="35.1" y="621.3" width="258.6" height="1.74"/>
    <rect class="cls-8" x="35.1" y="631.5" width="258.6" height="1.74"/>
    <rect class="cls-8" x="35.1" y="641.7" width="258.6" height="1.74"/>
    <rect class="cls-8" x="35.1" y="651.9" width="258.6" height="1.74"/>
    <rect class="cls-8" x="35.1" y="662" width="258.6" height="1.74"/>
    <rect class="cls-8" x="35.1" y="672.2" width="258.6" height="1.74"/>
    <rect class="cls-8" x="35.1" y="682.4" width="258.6" height="1.74"/>
    <rect class="cls-8" x="35.1" y="692.6" width="258.6" height="1.74"/>
    <rect class="cls-8" x="35.1" y="702.8" width="258.6" height="1.74"/>
    <rect class="cls-8" x="35.1" y="713" width="258.6" height="1.74"/>
    <rect class="cls-8" x="35.1" y="723.2" width="258.6" height="1.74"/>
    <rect class="cls-11" x="483.9" y="241.4" width="23.5" height="1108.93" transform="translate(-272.5 1246.1) rotate(-86.3)"/>
    <rect class="cls-11" x="1006.5" y="837.5" width="23.6" height="80.82"/>
    <rect class="cls-11" x="919.3" y="828" width="23.6" height="91.41"/>
    <rect class="cls-11" x="248.6" y="787.4" width="23.6" height="123.75"/>
    <rect class="cls-11" x="164" y="785.5" width="23.6" height="125.61"/>
    <rect class="cls-11" x="75.8" y="774.5" width="23.6" height="136.59"/>
    <rect class="cls-5" x="51.4" y="901.4" width="1937" height="277.17"/>
    <g class="cls-6">
      <path class="cls-12" d="M1667.5,330.9a108,108,0,1,0-108-108,107.9,107.9,0,0,0,108,108" transform="translate(58.4 7.7)"/>
    </g>
    <rect class="cls-5" x="1657.8" y="863.9" width="5.2" height="60.23"/>
    <g class="cls-6">
      <path class="cls-5" d="M1590.8,865.8a13.5,13.5,0,1,0-13.4-13.4,13.4,13.4,0,0,0,13.4,13.4" transform="translate(58.4 7.7)"/>
      <path class="cls-5" d="M1607,851.9a12.8,12.8,0,1,0-12.8-12.8,12.8,12.8,0,0,0,12.8,12.8" transform="translate(58.4 7.7)"/>
      <path class="cls-5" d="M1589.8,841.6a7,7,0,1,0-7.1-7,7,7,0,0,0,7.1,7" transform="translate(58.4 7.7)"/>
      <path class="cls-5" d="M1613.8,865.8A10.8,10.8,0,1,0,1603,855a10.8,10.8,0,0,0,10.8,10.8" transform="translate(58.4 7.7)"/>
      <path class="cls-5" d="M1601.8,834a10.1,10.1,0,1,0-10.1-10.1,10.1,10.1,0,0,0,10.1,10.1" transform="translate(58.4 7.7)"/>
    </g>
    <rect class="cls-5" x="1706.9" y="844.9" width="5.2" height="60.23"/>
    <g class="cls-6">
      <path class="cls-5" d="M1662.3,846.8a13.5,13.5,0,1,1,13.5-13.4,13.4,13.4,0,0,1-13.5,13.4" transform="translate(58.4 7.7)"/>
      <path class="cls-5" d="M1646.2,832.9a12.8,12.8,0,1,1,12.7-12.8,12.8,12.8,0,0,1-12.7,12.8" transform="translate(58.4 7.7)"/>
      <path class="cls-5" d="M1663.4,822.6a7.1,7.1,0,1,1,7-7,7,7,0,0,1-7,7" transform="translate(58.4 7.7)"/>
      <path class="cls-5" d="M1639.4,846.8a10.8,10.8,0,0,1,0-21.6,10.8,10.8,0,0,1,0,21.6" transform="translate(58.4 7.7)"/>
      <path class="cls-5" d="M1651.4,814.9a10.1,10.1,0,1,1,10.1-10,10.1,10.1,0,0,1-10.1,10" transform="translate(58.4 7.7)"/>
    </g>
    <rect class="cls-5" x="1751" y="720.1" width="212.7" height="204.16"/>
    <g class="cls-6">
      <path class="cls-5" d="M1808.8,658.8c-5.4-2.4-14.2-2.4-19.6,0L1656,716.7c-5.4,2.4-5,4.3.9,4.3H1941c6,0,6.4-1.9.9-4.3Z" transform="translate(58.4 7.7)"/>
    </g>
    <rect class="cls-13" x="1768.5" y="779.4" width="16.3" height="116.52"/>
    <rect class="cls-13" x="1808.9" y="779.4" width="16.3" height="116.52"/>
    <rect class="cls-13" x="1849.2" y="779.4" width="16.3" height="116.52"/>
    <rect class="cls-13" x="1889.6" y="779.4" width="16.3" height="116.52"/>
    <rect class="cls-13" x="1930" y="779.4" width="16.3" height="116.52"/>
    <rect class="cls-14" x="1768.5" y="737" width="177.8" height="23.47"/>
    <g class="cls-6">
      <rect class="cls-5" x="333.9" y="695.4" width="402.6" height="240.99" rx="10.7"/>
    </g>
    <rect class="cls-15" x="547.4" y="746.3" width="16.6" height="18.63"/>
    <rect class="cls-15" x="588.3" y="746.3" width="16.6" height="18.63"/>
    <rect class="cls-15" x="629.2" y="746.3" width="16.6" height="18.63"/>
    <rect class="cls-15" x="670.1" y="746.3" width="16.6" height="18.63"/>
    <rect class="cls-15" x="711" y="746.3" width="16.6" height="18.63"/>
    <rect class="cls-15" x="342.9" y="746.3" width="16.6" height="18.63"/>
    <rect class="cls-15" x="383.8" y="746.3" width="16.6" height="18.63"/>
    <rect class="cls-15" x="424.7" y="746.3" width="16.6" height="18.63"/>
    <rect class="cls-15" x="465.6" y="746.3" width="16.6" height="18.63"/>
    <rect class="cls-15" x="506.5" y="746.3" width="16.6" height="18.63"/>
    <rect class="cls-4" x="342.9" y="797.2" width="384.6" height="12.46"/>
    <rect class="cls-4" x="342.9" y="819.1" width="384.6" height="12.46"/>
    <rect class="cls-4" x="342.9" y="840.9" width="384.6" height="12.46"/>
    <rect class="cls-5" x="1501.9" y="577.7" width="102.4" height="6.28"/>
    <g class="cls-6">
      <rect class="cls-5" x="1481.4" y="604" width="141.3" height="326.32" rx="10.7"/>
    </g>
    <rect class="cls-5" x="1549.9" y="580.9" width="6.4" height="39.77"/>
    <rect class="cls-5" x="1597.9" y="580.9" width="6.4" height="39.77"/>
    <rect class="cls-5" x="1501.9" y="580.9" width="6.4" height="39.77"/>
    <rect class="cls-8" x="1481.4" y="637.3" width="141.3" height="2.43"/>
    <rect class="cls-8" x="1481.4" y="651.5" width="141.3" height="2.43"/>
    <rect class="cls-8" x="1481.4" y="665.7" width="141.3" height="2.43"/>
    <rect class="cls-8" x="1481.4" y="679.9" width="141.3" height="2.43"/>
    <rect class="cls-8" x="1481.4" y="694.2" width="141.3" height="2.43"/>
    <rect class="cls-8" x="1481.4" y="708.4" width="141.3" height="2.43"/>
    <rect class="cls-8" x="1481.4" y="722.6" width="141.3" height="2.43"/>
    <rect class="cls-8" x="1481.4" y="736.8" width="141.3" height="2.43"/>
    <rect class="cls-8" x="1481.4" y="751.1" width="141.3" height="2.43"/>
    <rect class="cls-8" x="1481.4" y="765.3" width="141.3" height="2.43"/>
    <rect class="cls-8" x="1481.4" y="779.5" width="141.3" height="2.43"/>
    <rect class="cls-8" x="1481.4" y="793.7" width="141.3" height="2.43"/>
    <rect class="cls-8" x="1481.4" y="808" width="141.3" height="2.43"/>
    <rect class="cls-8" x="1481.4" y="822.2" width="141.3" height="2.43"/>
    <g class="cls-6">
      <rect class="cls-5" x="1368.3" y="279.9" width="100.2" height="656.49" rx="10.7"/>
    </g>
    <rect class="cls-5" x="1413.7" y="230.1" width="9.3" height="49.86"/>
    <rect class="cls-5" x="1416" y="188.5" width="4.6" height="49.86"/>
    <g class="cls-6">
      <path class="cls-16" d="M1359.9,360.8a31.8,31.8,0,1,0-31.8-31.8,31.8,31.8,0,0,0,31.8,31.8" transform="translate(58.4 7.7)"/>
    </g>
    <rect class="cls-4" x="1417.7" y="308.6" width="1.3" height="28.07"/>
    <rect class="cls-4" x="1358.7" y="324.1" width="20.6" height="1.32" transform="translate(44.7 592.6) rotate(-24)"/>
    <g class="cls-6">
      <path class="cls-4" d="M1359.9,330.9a2,2,0,0,0,2-1.9,1.9,1.9,0,0,0-2-1.9,1.9,1.9,0,0,0-1.9,1.9,2,2,0,0,0,1.9,1.9" transform="translate(58.4 7.7)"/>
    </g>
  </g>
</svg>